<svg xmlns="http://www.w3.org/2000/svg" xmlns:xlink="http://www.w3.org/1999/xlink" width="28" height="20" viewBox="0 0 28 20">
    <defs>
        <path id="a" d="M0 0h27.984v19.007H0z"/>
    </defs>
    <g fill="none" fill-rule="evenodd">
        <mask id="b" fill="#fff">
            <use xlink:href="#a"/>
        </mask>
        <path fill="#FEFEFE" d="M7.523 13.606H25.94v-1.42H7.523v1.42zm0 2.71H25.94v-1.418H7.523v1.419zm-5.8-.013H6.34V2.648H1.723v13.655zm9.69-13.027V6.85h3.573a3.327 3.327 0 0 1-3.316 3.073c-.087 0-.172-.006-.257-.012a3.326 3.326 0 0 1-3.06-3.06c-.006-.086-.013-.17-.013-.258a3.327 3.327 0 0 1 3.073-3.316zm.513-.512c.085-.006.17-.013.256-.013a3.33 3.33 0 0 1 3.33 3.33c0 .086-.007.17-.013.255h-3.573V2.764zm9.067.775v3.573h3.572a3.327 3.327 0 0 1-3.316 3.073c-.087 0-.171-.007-.256-.013a3.326 3.326 0 0 1-3.06-3.06c-.007-.085-.014-.17-.014-.257a3.327 3.327 0 0 1 3.074-3.316zm.512-.513c.085-.006.17-.013.256-.013a3.33 3.33 0 0 1 3.33 3.33c0 .086-.007.17-.013.256h-3.573V3.026zM26.132 0H1.852C.833 0 0 .9 0 2v15.007c0 1.1.833 2 1.852 2h24.28c1.019 0 1.852-.9 1.852-2V2c0-1.1-.833-2-1.852-2z" mask="url(#b)"/>
    </g>
</svg>
