<svg xmlns="http://www.w3.org/2000/svg" width="165" height="165"  viewBox="0 0 165 165">
  <g fill="#FFF">
    <path d="M154 49.9604116L149.157557 40C148.978231 40.0956615 148.94693 40.4099778 149.089739 40.703112L153.522016 49.8196526C153.664172 50.1127867 154 49.9604116 154 49.9604116M126.404536 110.13573C136.273564 92.8323853 133.943909 72.5765027 125.546014 54 140.201647 64.6332414 144.555736 96.9993421 138.084634 115.409535 132.302808 131.854435 115.97425 128.421367 126.404536 110.13573M26.4515431 139C14.4947864 131.00346 6.06819916 118.830093 2 105 21.4030884 107.905223 29.2458266 120.33207 26.4515431 139M41 35C25.7684731 41.1539737 16.9078593 56.1439555 13.9583362 71.8853272 11.4629674 85.2114673 2.87158706 82.3620682 0 84 2.32036704 65.1718377 17.3336732 36.820002 41 35"/>
    <path d="M87.8794647 137.9235C87.8049738 147.171139 82.4586547 159.355973 88.322863 164.217609 92.8355934 167.959776 97.3355539 157.474642 101.822745 149.783942 106.953395 140.994267 109.579022 142.867117 120.306423 141.890408 145.211927 139.621786 140.101141 132.950906 127.653355 130.875929 123.008669 130.102053 116.221483 129.094248 113.084352 122.298275 110.106843 115.847897 113.281575 109.753006 118.251893 102.732292 124.985871 93.2217469 126.910574 87.7629187 112.173434 96.1101765 96.9964429 104.705499 96.1777523 106.913342 80.249467 98.5964734 58.8606432 87.4286326 65.3647639 98.7858786 75.1195262 108.336708 82.8899925 115.946133 87.9688538 126.870857 87.8794647 137.9235M27.8333142 63.6050103C34.7122315 60.5141064 45.5019418 61.9524478 47.0834616 53 53.0738145 57.4466885 49.9752843 72.3261564 36.4990713 78.9371181 25.7336386 84.2193399 17.2947048 68.3399364 27.8333142 63.6050103"/>
    <path d="M67.7473172 130.367527C58.3610753 109.723964 54.288251 95.4646948 63.5130121 73.6941177 74.5653136 47.6082633 68.0590452 51.7088712 55.2725812 68.3803456 43.9633148 83.1254452 29.9615329 84.3195434 8.90374617 88.9229294-3.70719525 91.6797356-3.57309605 96.8395671 13.5059464 97.5647823 33.0331769 98.3938013 36.9494352 111.855828 36.3814443 128.761744 36.1904758 134.458249 35.3086507 140.197123 33.4460058 145.388025 27.139833 162.957721 35.0025395 161.426083 41.2981809 152.547671 44.4323109 148.127177 47.2301397 143.148826 48.6315115 137.43608 51.4819971 125.823457 54.6336793 128.862017 59.7210238 136.580227 77.3104857 163.268427 74.5730366 145.381669 67.7473172 130.367527M88.4782287 97.4565373C84.6993761 93.3417426 85.3748162 84.4271891 89.6008318 80.6173 94.9862926 75.7617134 99.7490482 76.3078238 102.700758 79.2409302 112.96528 89.4438174 96.7489384 106.46199 88.4782287 97.4565373M114.199238 45.5922294C96.8359919 55.3971709 70.6160097 51.0543019 55.6987363 39.1055435 48.5433019 33.3741992 49.8789361 33.2312781 57.5439189 31.3581138 64.1624325 29.7397219 68.0696717 28.4817398 75.859585 34.2621053 80.4890353 37.6970454 85.2118325 40.2275089 89.5479065 41.2693831 99.8609965 43.7459922 107.646699 43.5347175 114.733351 40.9724938 128.309375 36.0613926 128.712943 37.3967039 114.199238 45.5922294"/>
    <path d="M91.5477702 19.3261384C95.3660984 27.3633307 104.008978 34.3940392 113.227444 34.7574917 119.958009 35.0230915 124.187369 33.2365829 113.492129 37.1611706 107.131283 39.4949549 100.042203 39.6620032 90.5422468 37.3477895 86.9752994 36.4782993 83.0589397 34.410115 79.1439804 31.5681962 69.6636309 24.691256 78.4871691 22.2819855 85.3444748 16.5611038 91.9167889 11.0764662 88.0081316 11.8732658 91.5477702 19.3261384M60.951521 2.10072094C68.4426793 5.30347365 74.8981839 6.57396342 82.0385224 7.0794348 88.6774897 7.54905714 89.9904381 6.80769912 84.868889 13.1608649 82.4964788 16.1033537 79.5897862 18.5876917 76.3427773 20.6655017 68.5232068 25.6707439 61.6111462 15.609354 57.625385 6.83566136 53.859499-1.4533523 53.4778686-1.09414498 60.951521 2.10072094M52.2753212 21.0119901C52.7735446 18.0169681 53.15547 14.6755173 53.2765851 11.2443539 53.4720207 5.74979971 52.6193981 5.6780296 55.5901583 10.5183716 57.1969976 13.1345302 59.1465374 15.9846318 60.8779325 18.321301 63.7853826 22.2472642 65.9744 24.8399595 61.2337081 26.1670164 59.6509542 26.6100589 58.053061 26.9992737 56.4524151 27.3374213 48.7072435 28.9736419 51.1398673 27.8363616 52.2753212 21.0119901"/>
  </g>
</svg>
