<svg id="Layer_1" data-name="Layer 1" xmlns="http://www.w3.org/2000/svg" viewBox="0 0 35.44 53.87"><defs><style>.cls-1,.cls-9{fill:none;}.cls-2{fill:#d9de3a;}.cls-3{fill:#b74a89;}.cls-4{fill:#ad404e;}.cls-5{fill:#67c2e8;}.cls-6{fill:#5db9ae;}.cls-7{fill:#5391c8;}.cls-8{fill:#fff;}.cls-9{stroke:#fff;stroke-linecap:round;stroke-linejoin:round;stroke-width:0;}</style></defs><title>Overture_logo-ego</title><path class="cls-1" d="M1.53,16.17a12.08,12.08,0,0,1,1.14-2.34,11.6,11.6,0,0,0-.73,11.36A11.85,11.85,0,0,1,1.53,16.17Z" transform="translate(-0.47 -0.67)"/><path class="cls-1" d="M28.75,34.94a11.82,11.82,0,0,1-2.72.87A12.14,12.14,0,0,0,28.75,34.94Z" transform="translate(-0.47 -0.67)"/><path class="cls-1" d="M29.7,34.48a12.08,12.08,0,0,0,2-1.45,11.6,11.6,0,0,1-2.56,1.72C29.32,34.66,29.51,34.59,29.7,34.48Z" transform="translate(-0.47 -0.67)"/><path class="cls-1" d="M25.53,35.89c-.24,0-.48.07-.73.09C25.05,36,25.29,35.93,25.53,35.89Z" transform="translate(-0.47 -0.67)"/><path class="cls-2" d="M15.67,8.53a11.92,11.92,0,0,1,4.82,2.59,12.74,12.74,0,0,1,1.35,1.3h0l.4-.06.21,0c.3,0,.6-.06.91-.07h.41a5.48,5.48,0,0,1,.7,0c.23,0,.46,0,.68.06l.41.05a11.69,11.69,0,0,1,1.43.29,12,12,0,0,1,5.85,3.6c0-.16.12-.32.16-.49A11.74,11.74,0,0,0,24.73,1.41,11.94,11.94,0,0,0,21.66,1a11.73,11.73,0,0,0-10.8,7.23A11.94,11.94,0,0,1,15.67,8.53Z" transform="translate(-0.47 -0.67)"/><path class="cls-3" d="M9.47,31.49a11.84,11.84,0,0,0,4.9.26,12,12,0,0,1-2.16-10.57c.07-.25.15-.49.23-.73A12,12,0,0,1,10,9.59c.09-.32.19-.63.3-.94A11.74,11.74,0,0,0,3.58,12.6c-.1.12-.21.24-.31.37l-.12.16c-.17.23-.32.46-.48.7a12.08,12.08,0,0,0-1.14,2.34,11.85,11.85,0,0,0,.41,9c.07.15.15.29.23.44s.15.3.24.45A11.7,11.7,0,0,0,9.47,31.49Z" transform="translate(-0.47 -0.67)"/><path class="cls-4" d="M10.36,9.68a11.7,11.7,0,0,0,2.21,10.41A12.17,12.17,0,0,1,14,17.39c.15-.22.31-.42.47-.62s.11-.15.17-.21a11.88,11.88,0,0,1,5.73-3.89,11.6,11.6,0,0,0-8.29-4.22,12.36,12.36,0,0,0-1.35.14A10.63,10.63,0,0,0,10.36,9.68Z" transform="translate(-0.47 -0.67)"/><path class="cls-5" d="M34,18.47A12.42,12.42,0,0,0,33,17a12.08,12.08,0,0,1-9.22,7.65h0a12,12,0,0,1-1.19,2.28l-.09.13c-.14.19-.28.39-.43.57s-.24.3-.37.45l-.23.27A12.21,12.21,0,0,1,15,32a11.56,11.56,0,0,0,5.53,3.58c.14,0,.28.09.42.12s.39.1.59.13a9.46,9.46,0,0,0,1.17.18l.54.05h.27A11.39,11.39,0,0,0,24.8,36c.25,0,.49,0,.73-.09l.5-.08a11.82,11.82,0,0,0,2.72-.87c.13-.06.26-.12.38-.19A11.6,11.6,0,0,0,31.69,33l.22-.21c.19-.18.38-.36.55-.55a8.21,8.21,0,0,0,.67-.77s0,0,0,0a11.77,11.77,0,0,0,.87-13Z" transform="translate(-0.47 -0.67)"/><path class="cls-5" d="M21.81,12.44l.43-.08-.4.06Z" transform="translate(-0.47 -0.67)"/><path class="cls-6" d="M29.4,20.7a12.13,12.13,0,0,0,2.38-2.42A12,12,0,0,0,32.6,17l.12-.37A11.66,11.66,0,0,0,26.9,13a11.88,11.88,0,0,0-3.07-.41,10.83,10.83,0,0,0-1.79.16,11.76,11.76,0,0,1,1.77,3.17c.06.16.12.31.17.47a.56.56,0,0,1,0,.12,11.86,11.86,0,0,1,.4,5.75c0,.21-.07.43-.12.64l-.06.24h0A12.59,12.59,0,0,0,27,22.21,13.46,13.46,0,0,0,29.4,20.7Z" transform="translate(-0.47 -0.67)"/><path class="cls-7" d="M21.68,24.79a12.16,12.16,0,0,1-3.14-.42,11.93,11.93,0,0,1-5.06-2.81A12.35,12.35,0,0,0,13,24a13.3,13.3,0,0,0,.12,3.39,10.82,10.82,0,0,0,1,3.26,9.2,9.2,0,0,0,.62,1A11.77,11.77,0,0,0,21.23,28a11.54,11.54,0,0,0,2.12-3.36A11.63,11.63,0,0,1,21.68,24.79Z" transform="translate(-0.47 -0.67)"/><path class="cls-5" d="M24,16.5a12.11,12.11,0,0,1,.4,5.75A11.86,11.86,0,0,0,24,16.5Z" transform="translate(-0.47 -0.67)"/><path class="cls-8" d="M34.3,18.3a11.47,11.47,0,0,0-1.21-1.71c.08-.24.16-.48.23-.72A12.05,12.05,0,0,0,10.47,8.3,12,12,0,0,0,9.39,31.8a11.67,11.67,0,0,0,3.13.42A11.92,11.92,0,0,0,14.6,32,12.05,12.05,0,0,0,34.3,18.3ZM15.83,2.57A11.65,11.65,0,0,1,21.66,1a11.94,11.94,0,0,1,3.07.41A11.74,11.74,0,0,1,33,15.79c0,.17-.11.33-.16.49A12,12,0,0,0,27,12.68a11.69,11.69,0,0,0-1.43-.29l-.41-.05c-.22,0-.45-.05-.68-.06a5.48,5.48,0,0,0-.7,0h-.41c-.31,0-.61,0-.91.07l-.21,0-.43.08,0,0h0a12.74,12.74,0,0,0-1.35-1.3,12,12,0,0,0-9.63-2.89A11.66,11.66,0,0,1,15.83,2.57Zm.42,6.93a11.44,11.44,0,0,1,4.1,3.17,11.88,11.88,0,0,0-5.73,3.89c-.06.06-.11.14-.17.21s-.32.4-.47.62a12.17,12.17,0,0,0-1.41,2.7A11.7,11.7,0,0,1,10.36,9.68a10.63,10.63,0,0,1,.35-1.09,12.36,12.36,0,0,1,1.35-.14A11.35,11.35,0,0,1,16.25,9.5Zm8,13.63.06-.24c.05-.21.09-.43.12-.64A12.11,12.11,0,0,0,24,16.5a.56.56,0,0,0,0-.12c-.05-.16-.11-.31-.17-.47A11.76,11.76,0,0,0,22,12.74a10.83,10.83,0,0,1,1.79-.16A11.88,11.88,0,0,1,26.9,13a11.66,11.66,0,0,1,5.82,3.65L32.6,17a12,12,0,0,1-.82,1.27A12.13,12.13,0,0,1,29.4,20.7,13.46,13.46,0,0,1,27,22.21a12.59,12.59,0,0,1-2.71.93ZM12.48,20.32Zm2.27,11.35a9.2,9.2,0,0,1-.62-1,10.82,10.82,0,0,1-1-3.26A13.3,13.3,0,0,1,13,24a12.35,12.35,0,0,1,.48-2.42,11.93,11.93,0,0,0,5.06,2.81,12.16,12.16,0,0,0,3.14.42,11.63,11.63,0,0,0,1.67-.13A11.54,11.54,0,0,1,21.23,28,11.77,11.77,0,0,1,14.75,31.67Zm-12.58-6c-.08-.15-.16-.29-.23-.44a11.6,11.6,0,0,1,.73-11.36c.16-.24.31-.47.48-.7L3.27,13c.1-.13.21-.25.31-.37a11.74,11.74,0,0,1,6.76-3.95c-.11.31-.21.62-.3.94a12,12,0,0,0,2.4,10.86c-.08.24-.16.48-.23.73a12,12,0,0,0,2.16,10.57,11.84,11.84,0,0,1-4.9-.26,11.7,11.7,0,0,1-7.06-5.41C2.32,25.93,2.25,25.78,2.17,25.63Zm31,5.87a8.21,8.21,0,0,1-.67.77c-.17.19-.36.37-.55.55l-.22.21a12.08,12.08,0,0,1-2,1.45c-.19.11-.38.18-.57.27s-.25.13-.38.19a12.14,12.14,0,0,1-2.72.87l-.5.08c-.24,0-.48.07-.73.09a11.39,11.39,0,0,1-1.31.05h-.27L22.68,36a9.46,9.46,0,0,1-1.17-.18c-.2,0-.39-.08-.59-.13s-.28-.08-.42-.12A11.56,11.56,0,0,1,15,32a12.21,12.21,0,0,0,6.44-3.65l.23-.27c.13-.15.25-.29.37-.45s.29-.38.43-.57l.09-.13a12,12,0,0,0,1.19-2.28h0A12.08,12.08,0,0,0,33,17,12.42,12.42,0,0,1,34,18.47a11.77,11.77,0,0,1-.87,13S33.13,31.49,33.13,31.5Z" transform="translate(-0.47 -0.67)"/><path class="cls-9" d="M23.22,36h.27" transform="translate(-0.47 -0.67)"/><path class="cls-9" d="M31.69,33l.22-.21" transform="translate(-0.47 -0.67)"/><path class="cls-9" d="M32.46,32.27a8.21,8.21,0,0,0,.67-.77" transform="translate(-0.47 -0.67)"/><line class="cls-9" x1="12.01" y1="19.65" x2="12.01" y2="19.65"/><path class="cls-9" d="M2.17,25.63c-.08-.15-.16-.29-.23-.44" transform="translate(-0.47 -0.67)"/><path class="cls-9" d="M3.15,13.13,3.27,13" transform="translate(-0.47 -0.67)"/><path class="cls-8" d="M10.83,45.25H4.12a2.76,2.76,0,0,0,.75,1.84,2.28,2.28,0,0,0,1.7.67,2.23,2.23,0,0,0,1.33-.38A5.63,5.63,0,0,0,9.09,46l1.82,1A7,7,0,0,1,10,48.21a5.3,5.3,0,0,1-1,.85,4.07,4.07,0,0,1-1.16.48,5.83,5.83,0,0,1-1.36.16,4.38,4.38,0,0,1-3.36-1.35,5,5,0,0,1-1.27-3.6,5.18,5.18,0,0,1,1.23-3.59A4.25,4.25,0,0,1,6.38,39.8a4.19,4.19,0,0,1,3.26,1.32,5.15,5.15,0,0,1,1.2,3.62ZM8.61,43.49a2.08,2.08,0,0,0-2.19-1.74,2.25,2.25,0,0,0-.74.12,2.42,2.42,0,0,0-.63.35,2.07,2.07,0,0,0-.48.54,2.51,2.51,0,0,0-.31.73Z" transform="translate(-0.47 -0.67)"/><path class="cls-8" d="M22.25,49.2c0,.45,0,.84-.05,1.17a8.4,8.4,0,0,1-.12.89,3.91,3.91,0,0,1-.9,1.82,4.4,4.4,0,0,1-3.49,1.46,4.69,4.69,0,0,1-3.09-1,4.14,4.14,0,0,1-1.44-2.87h2.18a2.42,2.42,0,0,0,.41,1.06,2.31,2.31,0,0,0,2,.88q2.37,0,2.37-2.91V48.38a4,4,0,0,1-3,1.32A4,4,0,0,1,14,48.31a5.11,5.11,0,0,1-1.23-3.51,5.43,5.43,0,0,1,1.14-3.48,4,4,0,0,1,3.25-1.52,3.76,3.76,0,0,1,2.94,1.32V40.06h2.17Zm-2.08-4.44a3.14,3.14,0,0,0-.73-2.18,2.39,2.39,0,0,0-1.89-.83,2.35,2.35,0,0,0-2,.91,3.78,3.78,0,0,0,0,4.21,2.33,2.33,0,0,0,2,.89,2.38,2.38,0,0,0,2-.9A3.24,3.24,0,0,0,20.17,44.76Z" transform="translate(-0.47 -0.67)"/><path class="cls-8" d="M24.53,44.68A4.62,4.62,0,0,1,26,41.23a5.1,5.1,0,0,1,7.09,0,5,5,0,0,1,0,7,5,5,0,0,1-3.58,1.42A4.77,4.77,0,0,1,26,48.25,4.85,4.85,0,0,1,24.53,44.68Zm2.22,0a3.17,3.17,0,0,0,.75,2.22,2.92,2.92,0,0,0,4.05,0,3.52,3.52,0,0,0,0-4.37,2.87,2.87,0,0,0-4,0A3,3,0,0,0,26.75,44.72Z" transform="translate(-0.47 -0.67)"/></svg>