<svg xmlns="http://www.w3.org/2000/svg" width="359" height="234" viewBox="0 0 359 234">
  <g fill="none" fill-rule="evenodd">
    <g fill-rule="nonzero" transform="translate(177 24)">
      <path fill="#F6921E" d="M172.4,5.9 C173.8,4.9 175.2,4 176.7,3.3 C178.2,2.6 179.8,2.2 181.6,2 C180.4,2.1 179.1,2.2 177.7,2.2 C175.2,2.2 173.1,2.6 171,3.5 C169,4.4 167.1,5.7 165.4,7.1 C164.1,5.3 162.6,3.5 160.5,2.2 C158.4,0.9 155.7,0.1 151.9,0.4 C149.9,0.6 147.8,0.9 145.8,1.5 C143.9,2 142.3,2.8 141,3.8 C140.7,4 140.4,4.3 140.1,4.5 C139.8,4.7 139.6,5 139.3,5.3 C138.8,5.8 138.4,6.3 138,6.9 C136.5,9.1 136,11.4 135.7,13.6 C133.4,13.2 131.1,13.1 129,13.3 C127.9,13.4 126.9,13.6 125.9,13.8 C124.9,14 124.1,14.4 123.2,14.8 L122.9,14.9 L122.9,14.9 L122.5,15.1 C121.8,15.4 121.1,15.6 120.4,15.8 L120.4,15.8 L120,16 C118.1,16.4 116.8,17 115.3,18 C113.8,18.9 112.2,20.1 110.4,21.3 C109.4,19.4 108.5,17.6 107,16 C105.5,14.4 103.5,13 100.3,12.1 L100.4,12.1 C99.5,11.9 98.6,11.6 97.6,11.4 C97.1,11.3 96.6,11.2 96.2,11.1 L94.8,10.9 L94.8,10.9 L94.7,10.9 L94.7,10.9 C91.5,10.4 88.7,10.9 86.4,11.9 C84.1,12.9 82.3,14.5 80.8,16.3 C79.1,14.7 77,13.4 74.5,12.8 C72,12.2 68.9,12.2 65.5,13.5 C63.7,14.2 62,15 60.3,15.9 C57.2,17.5 55.3,19.6 54.1,21.7 C52.9,23.8 52.4,26.1 52.1,28.4 C49.8,28 47.6,27.8 45.3,28.2 C44.2,28.4 43,28.7 41.9,29.2 C41.3,29.4 40.7,29.7 40.2,30.1 C39.7,30.4 39.2,30.7 38.7,31.1 C37.6,31.9 36.6,32.5 35.6,33.1 C34.7,33.6 34.1,34 33.6,34.5 C33.1,35 32.9,35.5 32.5,36.1 C32.2,36.7 31.8,37.3 31.3,38 C30.8,38.7 30.1,39.3 29.3,39.9 C28.8,37.9 28.6,36.1 27.9,34.3 C26.5,30.8 23.3,27.7 23.2,27.6 C23,27.4 22.8,27.2 22.5,27 C22.1,26.7 20.8,26.2 20.6,26.2 C20.2,26.2 19.9,26.2 19.6,26.3 L18.8,26.5 C18.3,26.6 17.7,26.8 17.2,26.9 C16.9,27 16.6,27.1 16.4,27.2 C16.3,27.3 16.1,27.3 16,27.4 L15.6,27.6 L14.1,28.3 L11.1,29.7 C10.1,30.2 9.1,30.6 8,30.9 C7,31.3 5.9,30.9 4.8,30.6 C3.4,30.3 2.2,30.5 1.5,30.7 C0.4,30.9 1.3,31.6 0.4,30.9 C1.3,31.6 0.4,30.8 1.5,31 C2.6,31.2 2.9,31.1 4,31.1 C4.5,31.1 5.9,31.7 6.4,31.7 C7.1,31.8 7.6,32 8.2,32.2 C8.9,32.5 9.6,32.9 10.1,33.5 C10.6,34.1 11,34.7 11.4,35.5 C11.7,36.2 11.9,37 12.1,37.7 C12.2,38.1 12.2,38.5 12.3,38.9 C12.4,39.3 12.4,39.7 12.5,40.1 C12.7,40.9 13,41.7 13.5,42.5 C15.7,45.7 20.4,46 20.5,46 C22.9,46.3 25.4,45.9 27.4,45 C28,46.1 28.7,47.1 29.8,48 C30.9,48.9 32.2,49.6 33.8,50 C35.4,50.4 37.1,50.5 38.9,50.2 C40.7,49.9 42.4,49.3 44,48.4 C45.8,47.4 47.4,46.4 48.9,45.3 C49.6,44.8 50.2,44.3 50.7,43.8 C51.2,43.3 51.6,42.8 52,42.3 C52.8,41.3 53.3,40.3 53.8,39.3 C54.7,37.2 55.1,35 55.3,32.8 C57.5,33.2 59.7,33.5 61.9,33.4 C64.1,33.3 66.2,32.8 68.4,31.6 C69.6,31 70.8,30.5 71.9,30 C74.1,29.2 75.6,28.1 77.1,26.6 C78.5,25.2 79.8,23.5 81.1,21.8 C82.6,23.4 84.1,24.8 85.8,26 C87.5,27.2 89.4,28 91.8,28.5 L91.5,28.5 L92.5,28.7 L93,28.8 L93.4,28.9 C94,29 94.6,29.2 95.2,29.3 L95.2,29.3 L95.7,29.4 L95.5,29.3 C97.8,29.9 100.2,29.9 102.5,29.4 C104.8,28.9 107,28 109,26.7 C110.2,28.8 111.8,30.8 114.3,32.1 C116.8,33.5 120.3,34.1 124.4,33.2 C126.5,32.7 128.7,32 130.7,31.1 C132.5,30.2 134,29.2 135.1,28.1 C136.2,27 137,25.9 137.5,24.8 C138.6,22.6 138.9,20.4 139,18.2 C141.2,18.6 143.3,19 145.3,19.1 C145.8,19.1 146.3,19.1 146.7,19.1 L148,19.1 C148.8,19.1 149.6,18.9 150.5,18.7 C151.4,18.4 152.4,18.3 153.5,18.2 C155.5,18 157.4,17.4 159.3,16.5 C161.2,15.5 162.9,14.2 164.6,12.7 C165.9,14.5 167.4,16.3 169.3,17.6 C171.3,18.9 173.8,19.9 177.4,20 C179.3,20 181.3,19.9 183.3,19.7 C180.4,20 178,19.6 176.1,18.8 C174.2,18 172.6,16.9 171.4,15.6 L169.7,13.6 C168.9,12.5 168.1,11.4 167.4,10.2 C168.4,9.3 169.4,8.4 170.4,7.5 L170.4,7.5 C170.5,7.4 172.4,5.9 172.4,5.9 Z M26.3,34.9 C26.7,35.9 26.8,37.1 26.8,38.2 C26.9,39.3 27,40.9 26.1,41.7 C25.2,42.5 20.3,43.4 19.2,43.4 C17.7,43.3 15.6,42.7 14.6,41.6 C14.2,41.1 13.8,40.4 13.6,39.7 C13.5,39.3 13.4,39 13.3,38.6 L13,37.4 C12.8,36.6 12.5,35.8 12.1,35.1 C11.7,34.4 11.2,33.7 10.6,33.1 C9.9,32.5 9.2,32.2 8.4,31.9 C7.9,31.7 7.5,31.7 7,31.6 C7.4,31.6 7.8,31.5 8.2,31.4 C9.3,31.1 10.4,30.7 11.4,30.3 L14.5,29 L16.1,28.4 L16.5,28.2 C16.6,28.2 16.7,28.1 16.9,28.1 C17.1,28 17.4,27.9 17.7,27.9 C18.2,27.8 18.8,27.7 19.3,27.6 L20.1,27.5 C20.3,27.5 20.5,27.5 20.7,27.5 C23.7,27.9 25.1,31.6 25.2,31.9 C25.4,32.8 25.9,33.8 26.3,34.9 Z M51.5,35.6 L51.2,38.2 C51.1,39 50.9,39.8 50.6,40.6 C50.5,41 50.3,41.4 50.2,41.8 C50.1,42 50,42.2 50,42.4 C49.9,42.6 49.8,42.8 49.7,43 C49.7,43 48.4,44.8 48.5,44.8 C48,45.5 47.3,46.1 46.5,46.8 C45.8,47.1 45.1,47.4 44.3,47.7 C43.7,47.9 42.1,48.2 42.1,48.2 C40,48.5 38,48.3 36.2,47.6 L33.6,46.3 C32.3,45.4 31.2,44.2 30.5,42.9 C31.2,42.3 31.7,41.6 32.2,40.9 C32.6,39.9 33.8,37.7 33.8,37.7 C34.3,36.5 34.7,35.4 35.3,34.4 C35.3,34.4 36.2,33.3 36.1,33.3 C36.4,32.9 36.6,32.7 37.2,32.3 C38.5,31.5 40.7,31.2 40.7,31.2 C41.1,31.1 41.5,31.1 41.9,31 C42.3,30.9 42.7,30.9 43.1,30.9 C43.9,30.9 44.8,30.9 45.6,30.9 L48.2,31.2 C49.4,31.4 50.6,31.7 51.8,31.9 C51.7,33.1 51.6,34.4 51.5,35.6 Z M75,24.9 C74.2,26.2 71.3,29.5 71.3,29.5 C70.9,29.8 70.5,30.2 70,30.5 C69.4,30.7 68.8,30.8 68.1,30.9 C67.8,30.9 66.4,31 66.4,31 C64.9,31 63.4,30.9 61.8,30.6 C61.8,30.6 56.7,29.4 55.5,29.1 C55.6,27.8 56.6,22.5 56.6,22.5 C57.1,20.9 57.9,19.3 59,17.9 C59,17.9 60.9,15.6 62.6,14.7 C64.3,14.1 67.2,14 67.2,14 C69.1,14 74.4,14.7 78.3,19.2 C77.7,20.4 75,24.9 75,24.9 Z M107.4,23.3 C106.3,24 105.2,24.7 104.1,25.3 C102,27.3 95.8,28.3 95.7,28.4 C95,28.5 94.3,28.6 93.6,28.6 C93.4,28.5 93.2,28.4 93,28.3 L92.7,28.1 L90.9,27.1 C89.7,26.3 88.7,25.4 87.8,24.4 L86.2,22.6 C85.2,21.4 84.2,20.2 83.1,18.9 C84,17.8 88.1,13.9 89.3,13.3 C90.5,12.7 94.3,11.6 95,11.6 C95,11.6 95.7,11.5 96.1,11.5 C96.5,11.5 96.9,11.5 97.3,11.6 C98.2,11.9 99.8,12.7 99.9,12.8 C100.5,13.1 101.6,14 101.6,14 C102.5,14.8 104.8,17.6 105.2,18.1 C105.7,18.7 107,22.3 107.4,23.3 Z M135.2,21.7 L135.2,21.7 C135.2,21.9 135.1,22.2 135.1,22.4 C135,23.1 134.8,23.7 134.6,24.3 L134.6,24.3 C133.6,27.6 130.8,30.1 130.2,30.4 C130.2,30.4 128.5,31.6 127.5,32 C125.4,32.6 122.9,32.3 122.9,32.3 C117.4,31.6 115.6,29.1 115.3,28.7 C113.9,27.4 112.9,25.8 112,24.3 C113.5,23.1 114.8,21.8 116,20.5 L117.5,19 C118.3,18.2 119.1,17.4 119.9,16.7 C119.9,16.7 121.5,15.6 121.7,15.5 C122.3,15.4 125.1,15.3 126,15.4 C126.8,15.5 130.9,15.4 135.5,17.2 C135.4,18.8 135.4,20.3 135.2,21.7 Z M160.1,12.1 C158.6,14 156.5,15.5 154.6,16.8 C154.2,17.1 152.5,18 152,18.1 C151.5,18.1 149.3,17.7 149.3,17.7 C148.7,17.5 148.1,17.4 147.5,17.1 C146.9,16.9 146.3,16.7 145.6,16.5 L143.3,15.7 C142,15.3 140.6,14.8 139.3,14.4 C139.4,13 139.6,11.5 140,10.1 C140,10.1 140.1,8.7 140.5,7.9 C140.8,7.4 141.1,6.9 141.5,6.4 C142.2,5.2 143.2,4.1 144.4,3.2 C144.4,3.2 146.9,1.3 148.9,0.9 C150.9,0.6 153.9,1.5 153.9,1.5 C155.7,2.1 157.2,3 158.4,4.1 C158.4,4.1 160,5.6 160.6,6.4 C160.7,6.5 162.1,8.5 162.7,9.4 L160.1,12.1 Z"/>
      <g transform="translate(11 1)">
        <g transform="translate(117 14)">
          <path fill="#FD9D6F" d="M5.4,4.4 L5.1,4 C5,4.2 4.8,4.4 4.6,4.5 C4.4,4.7 4.1,4.8 3.8,4.8 L4.1,5.2 C4.1,5.3 4.1,5.4 4,5.4 C4,5.4 4,5.4 4,5.4 L7.1,9.6 C7.3,9.9 7.8,9.8 8.3,9.5 C8.7,9.2 8.9,8.7 8.7,8.4 L5.6,4.2 C5.6,4.2 5.6,4.2 5.6,4.2 C5.6,4.5 5.5,4.4 5.4,4.4 Z"/>
          <path fill="#B86966" d="M0.6,0.7 L1.7,2.3 L3.5,4.8 L3.5,4.9 L4,5.5 C4,5.5 4,5.5 4,5.5 C4.1,5.4 4.1,5.3 4.1,5.3 L3.8,4.9 C4.1,4.8 4.3,4.7 4.6,4.6 C4.8,4.5 5,4.3 5.1,4.1 L5.4,4.5 C5.4,4.6 5.6,4.6 5.6,4.5 C5.6,4.5 5.6,4.5 5.6,4.5 L5.2,3.9 L5.1,3.8 L3.3,1.2 C3.3,1.1 0.9,0.7 0.6,0.7 Z"/>
          <path fill="#FFF" d="M1.8,1.3 L7.7,9.6 L7.7,9.6 C7.4,9.8 7.1,9.7 6.9,9.4 L1,1.2 L1.8,1.3 Z" opacity=".38"/>
        </g>
        <g transform="translate(158 3)">
          <path fill="#FD9D6F" d="M2.7,7.6 L2.8,7.1 C2.6,7.2 2.3,7.2 2.1,7.1 C1.8,7.1 1.5,7 1.3,6.8 L1.2,7.3 C1.2,7.4 1.1,7.4 1,7.4 C1,7.4 1,7.4 1,7.4 L0.8,9.4 L2.5,11.4 L3,7.7 C3,7.7 3,7.7 3,7.7 C2.8,7.8 2.7,7.7 2.7,7.6 Z"/>
          <path fill="#B86966" d="M1.9,0.6 L1.5,3.6 L1.1,6.7 L1.1,6.8 L1,7.6 C1,7.6 1,7.6 1,7.6 C1.1,7.6 1.2,7.6 1.2,7.5 L1.3,7 C1.5,7.1 1.8,7.2 2.1,7.3 C2.4,7.3 2.6,7.3 2.8,7.3 L2.7,7.8 C2.7,7.9 2.8,8 2.9,8 C2.9,8 2.9,8 2.9,8 L3,7.3 L3,7.2 L3.4,4.1 L3.8,1.1 C3.8,0.8 3.4,0.5 2.9,0.4 C2.4,0.1 1.9,0.2 1.9,0.6 Z"/>
          <path fill="#FFF" d="M2.5,0.4 L1.3,10.1 L0.8,9.4 L1.9,0.9 C2,0.6 2.2,0.3 2.5,0.4 L2.5,0.4 Z" opacity=".38"/>
        </g>
        <g transform="translate(45 21)">
          <path fill="#FD9D6F" d="M3.6,5.2 L3.3,4.8 C3.2,5 3,5.2 2.8,5.3 C2.6,5.5 2.3,5.6 2,5.6 L2.3,6 C2.3,6.1 2.3,6.2 2.2,6.2 C2.2,6.2 2.2,6.2 2.2,6.2 L5.1,10.5 C5.3,10.8 5.8,10.7 6.3,10.4 C6.8,10.1 7,9.6 6.8,9.4 L3.9,5.1 C3.9,5.1 3.9,5.1 3.9,5.1 C3.7,5.3 3.6,5.3 3.6,5.2 Z"/>
          <path fill="#B86966" d="M0.2,3.3 L1.7,5.6 L1.7,5.7 L2.1,6.3 C2.1,6.3 2.1,6.3 2.1,6.3 C2.2,6.2 2.2,6.1 2.2,6.1 L1.9,5.7 C2.2,5.6 2.4,5.5 2.7,5.4 C2.9,5.3 3.1,5.1 3.2,4.9 L3.5,5.3 C3.5,5.4 3.7,5.4 3.7,5.3 C3.7,5.3 3.7,5.3 3.7,5.3 L3.3,4.7 L3.2,4.6 L1.5,2.1 L0.5,0.6 L0.2,3.3 Z"/>
          <path fill="#FFF" d="M0.4,2.4 L5.9,10.6 L5.9,10.6 C5.6,10.8 5.3,10.7 5.1,10.4 L0.3,3.1 L0.4,2.4 Z" opacity=".38"/>
        </g>
        <g transform="translate(75 12)">
          <path fill="#FD9D6F" d="M2.3,6.6 L2.3,6.1 C2.1,6.2 1.8,6.2 1.6,6.2 C1.3,6.2 1,6.1 0.8,6 L0.8,6.5 C0.8,6.6 0.7,6.6 0.6,6.6 C0.6,6.6 0.6,6.6 0.6,6.6 L0.1,11.8 C0.1,12.1 0.5,12.4 1,12.5 C1.5,12.6 2,12.3 2,12 L2.5,6.8 C2.5,6.8 2.5,6.8 2.5,6.8 C2.4,6.7 2.3,6.7 2.3,6.6 Z"/>
          <path fill="#B86966" d="M0.9,2.3 L0.9,2.8 L0.6,5.8 L0.6,5.9 L0.5,6.7 C0.5,6.7 0.5,6.7 0.5,6.7 C0.6,6.7 0.7,6.7 0.7,6.6 L0.7,6.1 C0.9,6.2 1.2,6.3 1.5,6.3 C1.8,6.3 2,6.3 2.2,6.2 L2.2,6.7 C2.2,6.8 2.3,6.9 2.4,6.9 C2.4,6.9 2.4,6.9 2.4,6.9 L2.5,6.2 L2.5,6.1 L2.8,3.1 L3,0.8 C3.1,0.2 0.9,2.3 0.9,2.3 Z"/>
          <path fill="#FFF" d="M1.7,1.7 L0.8,11.4 L0.8,11.4 C0.5,11.4 0.3,11.1 0.3,10.8 L1.1,2.3 L1.7,1.7 Z" opacity=".38"/>
        </g>
        <g transform="translate(33 27)">
          <path fill="#FD9D6F" d="M6.1,5.9 L5.8,5.5 C5.7,5.7 5.5,5.9 5.3,6.1 C5.1,6.3 4.8,6.4 4.6,6.5 L4.9,6.9 C5,7 4.9,7.1 4.8,7.1 C4.8,7.1 4.8,7.1 4.8,7.1 L7.2,10.1 L7.5,7.4 L6.4,5.9 C6.4,5.9 6.4,5.9 6.4,5.9 C6.3,5.9 6.2,5.9 6.1,5.9 Z"/>
          <path fill="#B86966" d="M0.8,2 L2.5,4.1 L4.4,6.4 L4.4,6.5 L4.9,7.1 C4.9,7.1 4.9,7.1 4.9,7.1 C5,7 5,6.9 5,6.9 L4.7,6.5 C5,6.4 5.2,6.3 5.4,6.1 C5.6,5.9 5.8,5.7 5.9,5.5 L6.2,5.9 C6.3,6 6.4,6 6.4,5.9 C6.4,5.9 6.4,5.9 6.4,5.9 L6,5.3 L5.9,5.2 L4,2.8 L2.4,0.7 C2.2,0.4 1.7,0.6 1.3,0.9 C0.8,1.3 0.6,1.8 0.8,2 Z"/>
          <path fill="#FFF" d="M1.1,1.4 L7.2,9 L7.1,9.7 L1,2.2 C0.8,2 0.9,1.6 1.1,1.4 L1.1,1.4 Z" opacity=".38"/>
        </g>
        <g transform="translate(61 13)">
          <path fill="#FD9D6F" d="M3.7,6.3 L3.6,5.8 C3.4,5.9 3.2,6 2.9,6.1 C2.6,6.2 2.3,6.2 2.1,6.1 L2.2,6.6 C2.2,6.7 2.2,6.8 2.1,6.8 C2.1,6.8 2.1,6.8 2.1,6.8 L3.1,10.9 C3.5,10.3 4.6,8.5 4.6,8.5 L4.1,6.3 C4.1,6.3 4.1,6.3 4.1,6.3 C3.8,6.5 3.7,6.4 3.7,6.3 Z"/>
          <path fill="#B86966" d="M0.6,1.1 L1.1,3.1 L1.8,6 L1.8,6.1 L2,6.8 C2,6.8 2,6.8 2,6.8 C2.1,6.8 2.2,6.7 2.1,6.6 L2,6.1 C2.3,6.1 2.6,6.1 2.8,6.1 C3.1,6 3.3,5.9 3.5,5.8 L3.6,6.3 C3.6,6.4 3.7,6.4 3.8,6.4 C3.8,6.4 3.8,6.4 3.8,6.4 L3.6,5.7 L3.6,5.6 L2.9,2.6 L2.4,0.6 C2.3,0.3 1.9,0.2 1.3,0.3 C0.9,0.5 0.6,0.8 0.6,1.1 Z"/>
          <path fill="#FFF" d="M1.2,0.6 L3.4,10.1 L3,10.7 L0.8,1.3 C0.7,1 0.9,0.6 1.2,0.6 L1.2,0.6 Z" opacity=".38"/>
        </g>
        <g transform="translate(108 14)">
          <path fill="#FD9D6F" d="M4.5,10.3 L4.4,9.6 C4.2,9.8 4,9.9 3.7,9.9 C3.4,10 3.1,9.9 2.8,9.8 L2.9,10.6 C2.9,10.7 2.9,10.8 2.8,10.9 C2.8,10.9 2.8,10.9 2.8,10.9 L4.1,17.5 C5.1,17.6 5.8,17.6 6.1,17.5 L4.7,10.6 C4.7,10.6 4.7,10.6 4.7,10.6 C4.6,10.5 4.5,10.4 4.5,10.3 Z"/>
          <path fill="#B86966" d="M1,1.8 L1.6,5.3 L2.4,9.7 L2.4,9.8 L2.6,10.9 C2.6,10.9 2.6,10.9 2.6,10.9 C2.7,10.9 2.8,10.8 2.7,10.6 L2.6,9.8 C2.9,9.9 3.2,9.9 3.5,9.9 C3.8,9.9 4,9.7 4.2,9.6 L4.3,10.3 C4.3,10.4 4.4,10.5 4.5,10.5 C4.5,10.5 4.5,10.5 4.5,10.5 L4.3,9.5 L4.3,9.3 L3.4,4.9 L2.8,1.5 C2.7,1 2.2,0.8 1.7,0.9 C1.3,0.9 0.9,1.3 1,1.8 Z"/>
          <path fill="#FFF" d="M1.6,1.5 L4.7,17.3 C4.7,17.3 4.2,17.6 4.1,17.2 L1.3,2.5 C1.1,1.9 1.3,1.5 1.6,1.5 L1.6,1.5 Z" opacity=".38"/>
        </g>
        <g transform="translate(54 12)">
          <path fill="#FD9D6F" d="M4.4,7.6 L4.7,8.3 C4.4,8.3 4.2,8.3 4,8.4 C3.7,8.5 3.5,8.7 3.3,8.9 L3,8.2 C3,8.1 2.8,8 2.7,8.1 C2.7,8.1 2.7,8.1 2.7,8.1 L0.1,1.3 C-0.1,0.8 1.8,0.1 2,0.6 L4.6,7.4 C4.6,7.4 4.6,7.4 4.6,7.4 C4.4,7.3 4.3,7.5 4.4,7.6 Z"/>
          <path fill="#B86966" d="M6,16.8 L4.7,13.4 L3.1,9.2 L3.1,9.1 L2.7,8 C2.7,8 2.7,8 2.7,8 C2.8,8 2.9,8 3,8.1 L3.3,8.8 C3.5,8.6 3.7,8.4 4,8.3 C4.2,8.2 4.5,8.2 4.7,8.2 L4.4,7.5 C4.4,7.4 4.4,7.3 4.5,7.2 C4.5,7.2 4.5,7.2 4.5,7.2 L4.9,8.2 L5,8.4 L6.6,12.7 L7.5,15 C7.5,15.2 6.8,16.2 6,16.8 Z"/>
          <path fill="#FFF" d="M6.3,15.8 L0.6,0.9 C0.6,0.9 -1.38777878e-16,1 0.2,1.4 L5.8,16.2 C6,16.6 6.3,15.8 6.3,15.8 Z" opacity=".38"/>
        </g>
        <g transform="translate(84 11)">
          <path fill="#FB5C0F" d="M4.6,8.2 L4.4,8.9 C4.2,8.7 4,8.6 3.7,8.5 C3.4,8.4 3.1,8.4 2.8,8.5 L3,7.8 C3,7.7 3,7.6 2.9,7.5 C2.9,7.5 2.9,7.5 2.9,7.5 L4.8,0.7 C5.2,0.9 6.2,1.5 6.6,1.9 L4.9,8 C4.9,8 4.9,8 4.9,8 C4.7,8 4.6,8 4.6,8.2 Z"/>
          <path fill="#882D00" d="M0.6,16 L1.4,13 L2.6,8.7 L2.6,8.6 L2.9,7.5 C2.9,7.5 2.9,7.5 2.9,7.5 C3,7.5 3.1,7.6 3,7.8 L2.8,8.5 C3.1,8.4 3.4,8.4 3.7,8.5 C3.9,8.6 4.2,8.7 4.4,8.9 L4.6,8.2 C4.6,8.1 4.7,8 4.8,8 C4.8,8 4.8,8 4.8,8 L4.5,9 L4.4,9.2 L3.2,13.6 L2.4,16.5 C2.3,17 1.8,17.1 1.2,17 C0.8,16.9 0.5,16.5 0.6,16 Z"/>
          <path fill="#FFF" d="M1.1,16.8 L5.4,1.2 L4.9,0.9 L0.8,15.9 C0.6,16.2 0.8,16.7 1.1,16.8 L1.1,16.8 Z" opacity=".38"/>
        </g>
        <g transform="translate(79 10)">
          <path fill="#FD9D6F" d="M4,7.9 L3.9,8.6 C3.7,8.4 3.5,8.3 3.2,8.3 C2.9,8.3 2.6,8.3 2.3,8.4 L2.4,7.6 C2.4,7.5 2.4,7.4 2.3,7.4 C2.3,7.4 2.3,7.4 2.3,7.4 L3.3,1 C3.9,0.7 4.7,0.5 5.4,0.5 L4.2,7.7 C4.2,7.7 4.2,7.7 4.2,7.7 C4.1,7.7 4,7.8 4,7.9 Z"/>
          <path fill="#B86966" d="M0.9,16.1 L1.4,13 L2.1,8.6 L2.1,8.5 L2.3,7.4 C2.3,7.4 2.3,7.4 2.3,7.4 C2.4,7.4 2.5,7.5 2.4,7.6 L2.3,8.4 C2.6,8.3 2.9,8.2 3.2,8.3 C3.5,8.3 3.7,8.4 3.9,8.6 L4,7.9 C4,7.8 4.1,7.7 4.2,7.7 C4.2,7.7 4.2,7.7 4.2,7.7 L4,8.7 L4,8.9 L3.3,13.4 L2.8,17 C2.7,17.2 2.1,17.2 1.6,17.1 C1,17 0.8,16.6 0.9,16.1 Z"/>
          <path fill="#FFF" d="M1.5,16.8 L4.1,0.9 L3.5,1.2 L1.2,15.8 C1,16.3 1.2,16.7 1.5,16.8 L1.5,16.8 Z" opacity=".38"/>
        </g>
        <g transform="translate(48 15)">
          <path fill="#FB5C0F" d="M4,7.8 L4.1,8.1 C3.9,8.3 3.7,8.6 3.7,8.9 L4.7,10.9 L7.4,15.9 C7.6,16.3 9.4,15.4 9.2,15 L6.6,10.2 L5.3,7.8 C5,7.8 4.8,7.8 4.5,7.9 L4.4,7.7 C4.3,7.6 4.2,7.5 4,7.6 C4,7.5 3.9,7.7 4,7.8 Z"/>
          <path fill="#882D00" d="M0.1,2 L3.8,8.9 C3.9,8.6 4,8.3 4.2,8.1 L4.1,7.8 C4,7.7 4.1,7.5 4.2,7.4 C4.3,7.3 4.5,7.4 4.6,7.5 L4.7,7.7 C5,7.6 5.2,7.6 5.5,7.6 L1.8,0.7 C1.7,0.6 1.6,0.5 1.5,0.4 C1,0.9 0.1,2 0.1,2 Z"/>
          <path fill="#FFF" d="M0.6,1.7 L8,15.6 L8,15.6 C7.7,15.7 7.3,15.5 7.1,15.1 L0.2,2.1 L0.6,1.7 Z" opacity=".38"/>
        </g>
        <g transform="translate(112 14)">
          <path fill="#FB5C0F" d="M4.2,7.3 L4.3,7.6 C4.1,7.8 3.9,8.1 3.8,8.4 L4.8,10.4 L7.2,15.3 C7.4,15.7 7.9,15.8 8.4,15.6 C8.9,15.4 9.2,14.9 8.9,14.5 L6.6,9.8 L5.4,7.4 C5.1,7.4 4.9,7.4 4.6,7.5 L4.5,7.3 C4.4,7.2 4.3,7.1 4.2,7.2 C4.1,7 4.1,7.1 4.2,7.3 Z"/>
          <path fill="#882D00" d="M0,0.6 L3.8,8.3 C3.9,8 4,7.7 4.3,7.5 L4.2,7.2 C4.1,7.1 4.2,6.9 4.3,6.8 C4.4,6.7 4.6,6.8 4.6,6.9 L4.7,7.1 C5,7 5.2,7 5.5,7 L2.2,0.4 C1.5,0.4 0.6,0.6 0,0.6 Z"/>
          <path fill="#FFF" d="M1.1,1.3 L7.9,15 L7.9,15 C7.6,15.1 7.2,14.9 7,14.5 L0.5,1.3 C0.2,0.9 1.1,1.3 1.1,1.3 Z" opacity=".38"/>
        </g>
        <g transform="translate(133 1)">
          <path fill="#FB5C0F" d="M2.9,7.9 L3,8.2 C2.7,8.3 2.5,8.6 2.4,8.8 L2.9,10.9 L3.9,15.2 C3.9,15.2 5.2,15.7 6.1,15.8 L4.9,10.7 L4.3,8.1 C4.1,8 3.8,7.9 3.5,8 L3.4,7.7 C3.4,7.5 3.2,7.4 3.1,7.5 C3,7.6 2.9,7.7 2.9,7.9 Z"/>
          <path fill="#882D00" d="M0.5,0.9 L2.4,8.8 C2.5,8.5 2.8,8.3 3,8.2 L2.9,7.9 C2.9,7.7 2.9,7.6 3.1,7.6 C3.2,7.6 3.4,7.7 3.4,7.8 L3.5,8.1 C3.8,8.1 4,8.1 4.3,8.2 L2.5,0.5 C2.4,3.33066907e-16 1.9,3.33066907e-16 1.4,0.1 C0.8,0.2 0.4,0.4 0.5,0.9 Z"/>
          <path fill="#FFF" d="M1.1,0.3 L4.6,15.4 L4,15.1 L0.8,1.2 C0.6,0.8 0.8,0.4 1.1,0.3 L1.1,0.3 Z" opacity=".38"/>
        </g>
        <g transform="translate(140)">
          <path fill="#FB5C0F" d="M1.8,7.8 L1.8,8.1 C1.5,8.2 1.3,8.4 1.1,8.6 L1.2,10.8 L1.5,16.6 C1.5,17.1 2,17 2.5,17 C3,17 3.5,16.6 3.4,16.2 L3.1,11 L2.9,8.3 C2.7,8.2 2.4,8.1 2.1,8.1 L2.1,7.8 C2.1,7.6 2,7.5 1.8,7.5 C1.9,7.5 1.8,7.7 1.8,7.8 Z"/>
          <path fill="#882D00" d="M0.6,0.2 L1.1,8.7 C1.3,8.5 1.5,8.3 1.8,8.2 L1.8,7.9 C1.8,7.7 1.9,7.6 2,7.6 C2.1,7.6 2.3,7.7 2.3,7.9 L2.3,8.2 C2.6,8.2 2.8,8.3 3.1,8.4 L2.6,0.7 C2.1,0.4 1.1,0.2 0.6,0.2 Z"/>
          <path fill="#FFF" d="M1.3,0.5 L2.3,16.8 C2,16.8 1.7,16.8 1.6,15.2 L0.7,0.5 C0.7,0.1 1.3,0.5 1.3,0.5 Z" opacity=".38"/>
        </g>
        <g transform="translate(21 35)">
          <path fill="#FB5C0F" d="M2,7.5 L2,7.3 C1.7,7.3 1.4,7.2 1.2,7.1 L0.9,5.5 L0.2,1.3 C0.1,0.9 0.5,0.5 1,0.4 C1.5,0.3 2,0.4 2.1,0.8 L2.8,5 L3.1,6.9 C2.9,7.1 2.7,7.2 2.4,7.2 L2.4,7.4 C2.4,7.5 2.3,7.6 2.2,7.7 C2.1,7.7 2,7.6 2,7.5 Z"/>
          <g transform="translate(0 1)">
            <path fill="#882D00" d="M1.7,9.2 L1.1,6 C1.3,6.1 1.6,6.2 1.9,6.2 L1.9,6.4 C1.9,6.5 2,6.6 2.2,6.6 C2.3,6.6 2.4,6.5 2.4,6.3 L2.4,6.1 C2.7,6 2.9,5.9 3.1,5.8 L3.9,10.3 C3.5,10.2 1.9,9.5 1.7,9.2 Z"/>
            <path fill="#FFF" d="M2.5,9.6 L0.8,0.2 L0.8,0.2 C0.5,0.3 0.3,0.6 0.4,0.9 L1.9,9.1 L2.5,9.6 Z" opacity=".38"/>
          </g>
        </g>
        <g transform="translate(9 34)">
          <path fill="#FB5C0F" d="M4,5.2 L4.1,5.1 C3.9,4.9 3.7,4.7 3.6,4.5 L4.3,3.6 L6.4,0.6 C6.6,1.1 6.8,3.4 6.8,3.4 L6,4.6 L5.2,5.7 C5,5.6 4.7,5.5 4.5,5.4 L4.4,5.5 C4.4,5.6 4.2,5.6 4.1,5.5 C4,5.4 4,5.3 4,5.2 Z"/>
          <g transform="translate(0 1)">
            <path fill="#882D00" d="M0.2,8.3 C0.3,8.1 3.7,3.4 3.7,3.4 C3.8,3.6 3.9,3.8 4.2,4 L4.1,4.1 C4.1,4.2 4.1,4.3 4.2,4.4 C4.3,4.5 4.4,4.5 4.5,4.4 L4.6,4.3 C4.8,4.4 5.1,4.6 5.3,4.6 L2.3,8.8 C2.2,9 1.6,9.2 1,9 C0.4,9 0.1,8.5 0.2,8.3 Z"/>
            <path fill="#FFF" d="M0.7,8.8 L6.6,0.5 L6.6,0.5 C6.3,0.3 6,0.3 5.9,0.5 L0.5,8.2 C0.3,8.5 0.7,8.8 0.7,8.8 Z" opacity=".38"/>
          </g>
        </g>
        <g transform="translate(0 26)">
          <path fill="#FB5C0F" d="M4,4.9 L4.1,4.7 C3.9,4.5 3.7,4.3 3.7,4 L4.5,2.9 L5.8,1.1 C5.8,1.1 7.8,0.5 8.7,0.5 L6.3,4 L5.3,5.4 C5.1,5.4 4.8,5.3 4.6,5.1 L4.5,5.2 C4.4,5.3 4.3,5.3 4.2,5.2 C3.9,5.1 3.9,5 4,4.9 Z"/>
          <g transform="translate(0 1)">
            <path fill="#882D00" d="M0.7,7.2 L3.6,3.1 C3.7,3.3 3.8,3.6 4,3.8 L3.9,4 C3.8,4.1 3.9,4.2 4,4.3 C4.1,4.4 4.2,4.4 4.3,4.3 L4.4,4.2 C4.6,4.3 4.9,4.4 5.1,4.5 L1.7,9.1 C1.5,9.4 1.1,8.8 0.9,8.4 C0.7,7.8 0.5,7.4 0.7,7.2 Z"/>
            <path fill="#FFF" d="M1,7.9 L6.5,0.1 C6.5,0.1 5.9,0 5.7,0.2 L0.8,7.1 C0.7,7.4 0.7,7.7 1,7.9 L1,7.9 Z" opacity=".38"/>
          </g>
        </g>
        <g transform="translate(5 30)">
          <path fill="#FD9D6F" d="M5.5,7.8 L5.9,7.3 C5.7,7.2 5.4,7.1 5.2,7 C5,6.8 4.8,6.6 4.7,6.3 L4.3,6.8 C4.2,6.9 4.1,6.9 4,6.8 C4,6.8 4,6.8 4,6.8 L0.2,11.6 C-0.1,11.9 1.14491749e-16,12.5 0.4,12.8 C0.8,13.1 1.4,13.2 1.6,12.9 L5.5,8 C5.5,8 5.5,8 5.5,8 C5.4,8 5.4,7.9 5.5,7.8 Z"/>
          <path fill="#B86966" d="M8.9,0.6 L6.9,3.1 L4.6,6 L4.5,6.1 L3.9,6.9 C3.9,6.9 3.9,6.9 3.9,6.9 C4,7 4.1,6.9 4.2,6.9 L4.6,6.4 C4.7,6.7 4.9,6.9 5.1,7.1 C5.3,7.3 5.5,7.4 5.8,7.4 L5.4,7.9 C5.3,8 5.3,8.1 5.4,8.2 C5.4,8.2 5.4,8.2 5.4,8.2 L6,7.5 L6.1,7.4 L8.5,4.4 L9.8,2.8 C9.8,2.7 9.2,0.9 8.9,0.6 Z"/>
          <path fill="#FFF" d="M8.9,1.7 L0.4,12.4 L0.4,12.4 C0.2,12.2 0.2,11.8 0.4,11.5 L8.2,1.6 C8.4,1.4 8.9,1.7 8.9,1.7 Z" opacity=".38"/>
        </g>
        <g transform="translate(2 27)">
          <path fill="#FD9D6F" d="M5.5,7.8 L5.9,7.2 C5.7,7.2 5.4,7.1 5.2,6.9 C5,6.7 4.8,6.5 4.7,6.2 L4.3,6.8 C4.2,6.9 4.1,6.9 4,6.9 C4,6.9 4,6.9 4,6.9 L0.2,12 C-0.1,12.4 -1.11022302e-16,13 0.5,13.3 C0.9,13.6 1.3,13.9 1.6,13.5 L5.6,8.1 C5.6,8.1 5.6,8.1 5.6,8.1 C5.5,8.1 5.5,7.9 5.5,7.8 Z"/>
          <path fill="#B86966" d="M9.1,0 L7.2,2.5 L4.6,6 L4.5,6.1 L4,7 C4,7 4,7 4,7 C4.1,7.1 4.2,7 4.3,6.9 L4.7,6.3 C4.8,6.6 5,6.8 5.2,7 C5.4,7.2 5.6,7.2 5.9,7.3 L5.5,7.9 C5.4,8 5.4,8.1 5.5,8.2 C5.5,8.2 5.5,8.2 5.5,8.2 L6.1,7.4 L6.2,7.3 L8.8,3.8 L10.5,1.5 C10.3,0.8 9.6,0.1 9.1,0 Z"/>
          <path fill="#FFF" d="M9.7,0.4 L0.4,13 L0.4,13 C0.2,12.8 0.2,12.4 0.5,12 L9.1,0.3 C9.3,-0.1 9.7,0.4 9.7,0.4 Z" opacity=".38"/>
        </g>
        <g transform="translate(105 16)">
          <path fill="#FB5C0F" d="M2.1,6.8 L2.1,7.4 C1.9,7.3 1.6,7.2 1.4,7.2 C1.1,7.2 0.8,7.2 0.6,7.4 L0.6,6.8 C0.6,6.7 0.5,6.6 0.4,6.6 C0.4,6.6 0.4,6.6 0.4,6.6 L0.7,0.9 C0.7,0.5 1.2,0.2 1.7,0.2 C2.2,0.2 2.7,0.6 2.7,1 L2.4,6.7 C2.4,6.7 2.4,6.7 2.4,6.7 C2.2,6.7 2.1,6.7 2.1,6.8 Z"/>
          <path fill="#882D00" d="M0,12.6 L0.1,11.2 L0.3,7.6 L0.3,7.5 L0.3,6.6 C0.3,6.6 0.3,6.6 0.3,6.6 C0.4,6.6 0.5,6.7 0.5,6.8 L0.5,7.4 C0.8,7.3 1,7.2 1.3,7.2 C1.6,7.2 1.8,7.3 2,7.4 L2,6.8 C2,6.7 2.1,6.6 2.2,6.6 C2.2,6.6 2.2,6.6 2.2,6.6 L2.2,7.5 L2.2,7.7 L2,11.4 L1.9,13.9 C2,14.3 0,12.6 0,12.6 Z"/>
          <path fill="#FFF" d="M0.7,12.9 L1.3,0.8 L1.3,0.8 C1,0.8 0.7,1.1 0.7,1.5 L0.2,12.5 L0.7,12.9 Z" opacity=".38"/>
        </g>
        <g transform="translate(127 5)">
          <path fill="#FB5C0F" d="M4.4,4.9 L4.6,5.3 C4.4,5.3 4.1,5.4 3.9,5.6 C3.6,5.7 3.4,5.9 3.3,6.1 L3.1,5.7 C3.1,5.6 3,5.6 2.9,5.7 C2.9,5.7 2.9,5.7 2.9,5.7 L0.9,2.1 C0.7,1.8 1,1.4 1.5,1.1 C2,0.8 2.5,0.8 2.6,1.1 L4.6,4.7 C4.6,4.7 4.6,4.7 4.6,4.7 C4.4,4.7 4.3,4.8 4.4,4.9 Z"/>
          <g transform="translate(0 1)">
            <path fill="#882D00" d="M5,8.7 L4.5,7.8 L3.1,5.3 L3.1,5.2 L2.7,4.6 C2.7,4.6 2.7,4.6 2.7,4.6 C2.8,4.6 2.9,4.6 2.9,4.6 L3.1,5 C3.3,4.8 3.5,4.6 3.7,4.5 C3.9,4.4 4.2,4.3 4.4,4.2 L4.2,3.8 C4.2,3.7 4.2,3.6 4.3,3.6 C4.3,3.6 4.3,3.6 4.3,3.6 L4.6,4.2 L4.7,4.3 L6.1,6.8 L7.7,9.5 C7.2,9.4 5.2,9 5,8.7 Z"/>
            <path fill="#FFF" d="M5.9,9 L1.1,0.3 L1.1,0.3 C0.8,0.5 0.7,0.8 0.9,1.1 L5.1,8.7 L5.9,9 Z" opacity=".38"/>
          </g>
        </g>
        <g transform="translate(147 3)">
          <path fill="#FB5C0F" d="M2,4.6 L2,5.1 C1.8,5 1.5,5 1.3,5 C1,5 0.7,5 0.5,5.1 L0.5,4.6 C0.5,4.5 0.4,4.5 0.3,4.5 C0.3,4.5 0.3,4.5 0.3,4.5 L0.3,0.4 C0.3,0.1 2.3,2.3 2.3,2.3 L2.3,4.6 C2.3,4.6 2.3,4.6 2.3,4.6 C2.1,4.4 2,4.5 2,4.6 Z"/>
          <g transform="translate(0 1)">
            <path fill="#882D00" d="M0.1,9.9 L0.1,7 L0.1,4.2 L0.1,4.1 L0.1,3.4 C0.1,3.4 0.1,3.4 0.1,3.4 C0.2,3.4 0.3,3.5 0.3,3.5 L0.3,4 C0.6,3.9 0.8,3.9 1.1,3.9 C1.4,3.9 1.6,3.9 1.8,4 L1.8,3.5 C1.8,3.4 1.9,3.4 2,3.4 C2,3.4 2,3.4 2,3.4 L2,4.1 L2,4.2 L2,7.1 L2,9.9 C2,10.2 1.6,10.4 1,10.4 C0.6,10.4 0.1,10.2 0.1,9.9 Z"/>
            <path fill="#FFF" d="M0.4,0.1 L0.3,9.6 C0.3,9.9 0.5,10.2 0.9,10.2 L1,0.4 C1,0.4 0.4,-0.2 0.4,0.1 Z" opacity=".38"/>
          </g>
        </g>
        <g transform="translate(27 29)">
          <path fill="#FD9D6F" d="M6.5,6.8 L6.9,7.4 C6.6,7.4 6.4,7.5 6.2,7.7 C6,7.9 5.8,8.1 5.7,8.4 L5.2,7.8 C5.1,7.7 5,7.7 4.9,7.7 C4.9,7.7 4.9,7.7 4.9,7.7 L0.6,2.1 C0.3,1.7 0.4,1.1 0.8,0.8 C1.2,0.5 1.8,0.5 2.1,0.9 L6.4,6.5 C6.4,6.5 6.4,6.5 6.4,6.5 C6.5,6.6 6.4,6.7 6.5,6.8 Z"/>
          <g transform="translate(1 1)">
            <path fill="#B86966" d="M9.4,13.8 L7.4,11.2 L4.7,7.7 L4.6,7.6 L3.9,6.7 C3.9,6.7 3.9,6.7 3.9,6.7 C4,6.6 4.1,6.7 4.2,6.8 L4.7,7.4 C4.8,7.1 5,6.9 5.2,6.7 C5.4,6.5 5.6,6.4 5.9,6.4 L5.5,5.8 C5.4,5.7 5.4,5.6 5.5,5.5 C5.5,5.5 5.5,5.5 5.5,5.5 L6.1,6.3 L6.2,6.5 L8.9,10.1 L10.4,12.1 C10.6,12.1 9.8,13.3 9.4,13.8 Z"/>
            <path fill="#FFF" d="M9.7,13 L0.3,0.6 L0.3,0.6 C0.1,0.8 0.1,1.2 0.4,1.6 L9.4,13.5 L9.7,13 Z" opacity=".38"/>
          </g>
        </g>
        <g transform="translate(90 16)">
          <path fill="#FB5C0F" d="M2.9,4.5 L2.8,4.7 C2.5,4.7 2.2,4.7 2,4.8 L1.6,6.1 L0.2,10.6 C0.1,10.9 0.5,11.2 1,11.4 C1.5,11.6 2,11.5 2.1,11.2 L3.4,6.9 L3.9,5.3 C3.7,5.1 3.5,5 3.2,4.9 L3.2,4.7 C3.2,4.6 3.1,4.5 3,4.5 C3.1,4.3 3,4.4 2.9,4.5 Z"/>
          <path fill="#882D00" d="M3.6,0.1 L2.1,4.7 C2.3,4.6 2.6,4.6 2.9,4.6 L3,4.4 C3,4.3 3.2,4.3 3.3,4.3 C3.4,4.3 3.5,4.5 3.5,4.5 L3.5,4.7 C3.8,4.8 4,4.9 4.2,5.1 L5.1,2.4 C4.9,2.4 4.5,1.1 3.6,0.1 Z"/>
          <path fill="#FFF" d="M3.7,1.6 L0.9,10.4 L0.9,10.4 C0.6,10.3 0.4,10 0.5,9.7 L3.2,1.1 L3.7,1.6 Z" opacity=".38"/>
        </g>
        <g transform="translate(24 31)">
          <path fill="#FB5C0F" d="M4.5,9 L4.4,8.7 C4.1,8.8 3.8,8.7 3.5,8.6 L2.5,6.6 L0.2,2.1 C-1.38777878e-16,1.7 0.2,1.2 0.7,0.9 C1.2,0.7 1.5,0.3 1.7,0.7 L4.1,5.4 L5.3,7.8 C5.2,8 5,8.3 4.8,8.4 L4.9,8.6 C5,8.7 4.9,8.9 4.8,9 C4.8,9.2 4.6,9.1 4.5,9 Z"/>
          <g transform="translate(0 1)">
            <path fill="#882D00" d="M7.3,15 L3.5,7.6 C3.8,7.7 4.1,7.8 4.4,7.7 L4.5,8 C4.6,8.1 4.7,8.2 4.9,8.1 C5,8 5.1,7.9 5,7.7 L4.9,7.5 C5.1,7.4 5.3,7.1 5.4,6.9 L9.3,14.5 C8.8,14.7 8,15 7.3,15 Z"/>
            <path fill="#FFF" d="M7.9,14.8 L0.5,0.2 L0.5,0.2 C0.2,0.3 0.2,0.8 0.4,1.2 L7.2,14.5 C7.4,15 7.9,14.8 7.9,14.8 Z" opacity=".38"/>
          </g>
        </g>
      </g>
    </g>
    <g transform="translate(0 49)">
      <path fill="#DFDFDF" fill-rule="nonzero" d="M180.7 106.9C194.3 82.5 191.1 53.8 179.5 27.6 199.8 42.6 205.8 88.4 196.8 114.4 188.9 137.6 166.3 132.8 180.7 106.9zM39.5 147.9C22.3 136.5 10.1 119.1 4.3 99.3 32.3 103.5 43.6 121.2 39.5 147.9zM58.8.1C37.3 8.9 24.8 30.3 20.6 52.8 17.1 71.8 5 67.8.9 70.1 4.2 43.2 25.4 2.7 58.8.1z"/>
      <path fill="#0D99B7" d="M125.4,146.6 C125.3,159.7 117.8,176.9 126,183.8 C132.4,189.1 138.7,174.3 145,163.4 C152.2,151 155.9,153.6 171.1,152.2 C206.2,149 199,139.6 181.5,136.6 C175,135.5 165.4,134.1 161,124.5 C156.8,115.4 161.3,106.7 168.3,96.8 C177.8,83.3 180.5,75.6 159.7,87.4 C138.3,99.6 137.2,102.7 114.7,90.9 C84.6,75.1 93.7,91.2 107.5,104.7 C118.4,115.5 125.6,131 125.4,146.6 Z"/>
      <path fill="#C39" d="M40.8,40.8 C50.7,36.5 66.3,38.5 68.6,25.9 C77.2,32.1 72.8,53.1 53.3,62.3 C37.7,69.7 25.6,47.4 40.8,40.8 Z"/>
      <path fill="#C39" d="M97.7,136.3 C84.3,107.1 78.5,86.9 91.7,56 C107.4,19.1 98.2,24.9 80,48.5 C63.9,69.4 43.9,71.1 14,77.6 C-4,81.5 -3.8,88.8 20.6,89.8 C48.4,91 54,110 53.2,134 C52.9,142.1 51.7,150.2 49,157.5 C40,182.4 51.2,180.2 60.2,167.6 C64.7,161.3 68.6,154.3 70.6,146.2 C74.7,129.8 79.1,134.1 86.4,145 C111.3,182.9 107.4,157.6 97.7,136.3 Z"/>
      <path fill="#0D99B7" d="M126.2,88.7 C121,83 121.9,70.5 127.8,65.2 C135.3,58.4 141.8,59.2 145.9,63.3 C160.1,77.5 137.7,101.3 126.2,88.7 Z"/>
    </g>
    <g transform="translate(73)">
      <path fill="#90278E" d="M91.4,65.2 C66.7,79.4 29.3,73.1 8,55.8 C-2.2,47.5 -0.3,47.3 10.6,44.6 C20,42.3 25.6,40.4 36.7,48.8 C43.3,53.8 50,57.4 56.2,58.9 C70.9,62.5 82,62.2 92.1,58.5 C111.5,51.4 112,53.4 91.4,65.2 Z"/>
      <path fill="#00ADEE" d="M58.9,28 C64.4,39.5 76.7,49.6 89.9,50.1 C99.5,50.5 105.6,47.9 90.3,53.5 C81.2,56.8 71.1,57.1 57.5,53.8 C52.4,52.6 46.8,49.6 41.2,45.5 C27.7,35.7 40.3,32.2 50.1,24 C59.5,16.2 53.9,17.3 58.9,28 Z"/>
      <path fill="#BE1E2D" d="M14.4,3.4 C25.1,7.9 34.3,9.6 44.5,10.3 C54,11 55.9,9.9 48.5,18.8 C45.1,22.9 41,26.4 36.3,29.3 C25.1,36.3 15.3,22.2 9.6,10 C4.2,-1.6 3.7,-1.1 14.4,3.4 Z"/>
      <path fill="#F6921E" d="M2.4,30.7 C3.1,26.4 3.7,21.5 3.9,16.5 C4.2,8.5 2.9,8.4 7.3,15.4 C9.6,19.2 12.5,23.3 15,26.7 C19.2,32.4 22.4,36.1 15.5,38.1 C13.2,38.7 10.9,39.3 8.6,39.8 C-2.8,42.2 0.7,40.6 2.4,30.7 Z"/>
    </g>
  </g>
</svg>
